{
  "accessors": [
    {
      "bufferView": 2,
      "componentType": 5126,
      "count": 4035,
      "max": [
        0.3587630093097687,
        0.17023299634456635,
        1.6338030099868774
      ],
      "min": [
        -0.3558799922466278,
        -0.1649409979581833,
        0.84238600730896
      ],
      "type": "VEC3"
    },
    {
      "bufferView": 2,
      "byteOffset": 48420,
      "componentType": 5126,
      "count": 4035,
      "max": [
        0.9999991655349731,
        0.9999892711639404,
        0.9993385076522827
      ],
      "min": [
        -0.9998268485069275,
        -0.9997797608375549,
        -0.9993108510971069
      ],
      "type": "VEC3"
    },
    {
      "bufferView": 3,
      "componentType": 5126,
      "count": 4035,
      "max": [
        0.9999940991401672,
        0.9997966885566711,
        0.8638052344322205,
        1.0
      ],
      "min": [
        -0.9999696016311646,
        -0.9996591806411743,
        -0.8922173380851746,
        -1.0
      ],
      "type": "VEC4"
    },
    {
      "bufferView": 1,
      "componentType": 5126,
      "count": 4035,
      "max": [
        0.9745540022850037,
        0.9978489875793457
      ],
      "min": [
        0.0021510000806301832,
        0.007687999866902828
      ],
      "type": "VEC2"
    },
    {
      "bufferView": 0,
      "componentType": 5125,
      "count": 21606,
      "type": "SCALAR"
    }
  ],
  "asset": {
    "extras": {
      "author": "MadeByYeshe (https://sketchfab.com/MadeByYeshe)",
      "license": "CC-BY-4.0 (http://creativecommons.org/licenses/by/4.0/)",
      "source": "https://sketchfab.com/3d-models/basic-t-shirt-71bdf5940b5d41b8b46628a615e9b0ed",
      "title": "Basic T-Shirt"
    },
    "generator": "Sketchfab-16.82.0",
    "version": "2.0"
  },
  "bufferViews": [
    {
      "buffer": 0,
      "byteLength": 86424,
      "name": "floatBufferViews",
      "target": 34963
    },
    {
      "buffer": 0,
      "byteLength": 32280,
      "byteOffset": 86424,
      "byteStride": 8,
      "name": "floatBufferViews",
      "target": 34962
    },
    {
      "buffer": 0,
      "byteLength": 96840,
      "byteOffset": 118704,
      "byteStride": 12,
      "name": "floatBufferViews",
      "target": 34962
    },
    {
      "buffer": 0,
      "byteLength": 64560,
      "byteOffset": 215544,
      "byteStride": 16,
      "name": "floatBufferViews",
      "target": 34962
    }
  ],
  "buffers": [
    {
      "byteLength": 280104,
      "uri": "scene.bin"
    }
  ],
  "extensionsRequired": [
    "KHR_materials_pbrSpecularGlossiness"
  ],
  "extensionsUsed": [
    "KHR_materials_pbrSpecularGlossiness"
  ],
  "images": [
    {
      "uri": "textures/Large_T-Shirt_diffuse.png"
    },
    {
      "uri": "textures/Large_T-Shirt_specularGlossiness.png"
    },
    {
      "uri": "textures/Large_T-Shirt_normal.jpeg"
    }
  ],
  "materials": [
    {
      "doubleSided": true,
      "extensions": {
        "KHR_materials_pbrSpecularGlossiness": {
          "diffuseFactor": [
            1.0,
            1.0,
            1.0,
            1.0
          ],
          "diffuseTexture": {
            "index": 0
          },
          "glossinessFactor": 1.0,
          "specularFactor": [
            0.029629722042018063,
            0.029629722042018063,
            0.029629722042018063
          ],
          "specularGlossinessTexture": {
            "index": 1
          }
        }
      },
      "name": "Large_T-Shirt",
      "normalTexture": {
        "index": 2
      }
    }
  ],
  "meshes": [
    {
      "name": "Object_0",
      "primitives": [
        {
          "attributes": {
            "NORMAL": 1,
            "POSITION": 0,
            "TANGENT": 2,
            "TEXCOORD_0": 3
          },
          "indices": 4,
          "material": 0,
          "mode": 4
        }
      ]
    }
  ],
  "nodes": [
    {
      "children": [
        1
      ],
      "matrix": [
        1.0,
        0.0,
        0.0,
        0.0,
        0.0,
        2.220446049250313e-16,
        -1.0,
        0.0,
        0.0,
        1.0,
        2.220446049250313e-16,
        0.0,
        0.0,
        0.0,
        0.0,
        1.0
      ],
      "name": "Sketchfab_model"
    },
    {
      "children": [
        2
      ],
      "name": "T-Shirt Large.obj.cleaner.materialmerger.gles"
    },
    {
      "mesh": 0,
      "name": "Object_2"
    }
  ],
  "samplers": [
    {
      "magFilter": 9729,
      "minFilter": 9987,
      "wrapS": 10497,
      "wrapT": 10497
    }
  ],
  "scene": 0,
  "scenes": [
    {
      "name": "Sketchfab_Scene",
      "nodes": [
        0
      ]
    }
  ],
  "textures": [
    {
      "sampler": 0,
      "source": 0
    },
    {
      "sampler": 0,
      "source": 1
    },
    {
      "sampler": 0,
      "source": 2
    }
  ]
}
